{
  "accessors": [
    {
      "bufferView": 2,
      "componentType": 5126,
      "count": 12810,
      "max": [
        4.278804779052734,
        10.322854995727539,
        1.121405839920044
      ],
      "min": [
        -4.278804779052734,
        -10.322854995727539,
        -0.9000001549720764
      ],
      "type": "VEC3"
    },
    {
      "bufferView": 2,
      "byteOffset": 153720,
      "componentType": 5126,
      "count": 12810,
      "max": [
        1.0,
        1.0,
        1.0
      ],
      "min": [
        -1.0,
        -1.0,
        -1.0
      ],
      "type": "VEC3"
    },
    {
      "bufferView": 1,
      "componentType": 5126,
      "count": 12810,
      "max": [
        1.0,
        1.0
      ],
      "min": [
        0.0,
        0.0
      ],
      "type": "VEC2"
    },
    {
      "bufferView": 0,
      "componentType": 5125,
      "count": 19962,
      "type": "SCALAR"
    },
    {
      "bufferView": 2,
      "byteOffset": 307440,
      "componentType": 5126,
      "count": 422,
      "max": [
        3.8878672122955322,
        9.550312995910645,
        0.46745774149894714
      ],
      "min": [
        -3.9999327659606934,
        -3.731999397277832,
        -0.6738647818565369
      ],
      "type": "VEC3"
    },
    {
      "bufferView": 2,
      "byteOffset": 312504,
      "componentType": 5126,
      "count": 422,
      "max": [
        1.0,
        6.402190592780244e-06,
        1.0
      ],
      "min": [
        -1.0,
        -6.402182407327928e-06,
        -1.0
      ],
      "type": "VEC3"
    },
    {
      "bufferView": 1,
      "byteOffset": 102480,
      "componentType": 5126,
      "count": 422,
      "max": [
        0.9929983019828796,
        0.9628597497940063
      ],
      "min": [
        0.1396542638540268,
        0.265004426240921
      ],
      "type": "VEC2"
    },
    {
      "bufferView": 0,
      "byteOffset": 79848,
      "componentType": 5125,
      "count": 1002,
      "type": "SCALAR"
    },
    {
      "bufferView": 2,
      "byteOffset": 317568,
      "componentType": 5126,
      "count": 4,
      "max": [
        0.8888888955116272,
        0.5,
        0.0
      ],
      "min": [
        -0.8888888955116272,
        -0.5,
        0.0
      ],
      "type": "VEC3"
    },
    {
      "bufferView": 2,
      "byteOffset": 317616,
      "componentType": 5126,
      "count": 4,
      "max": [
        0.0,
        0.0,
        1.0
      ],
      "min": [
        0.0,
        0.0,
        1.0
      ],
      "type": "VEC3"
    },
    {
      "bufferView": 1,
      "byteOffset": 105856,
      "componentType": 5126,
      "count": 4,
      "max": [
        1.0,
        1.0
      ],
      "min": [
        0.0,
        0.0
      ],
      "type": "VEC2"
    },
    {
      "bufferView": 0,
      "byteOffset": 83856,
      "componentType": 5125,
      "count": 6,
      "type": "SCALAR"
    },
    {
      "bufferView": 2,
      "byteOffset": 317664,
      "componentType": 5126,
      "count": 17716,
      "max": [
        1.0,
        63.97684097290039,
        4.645375728607178
      ],
      "min": [
        -27.68834114074707,
        -9.850823402404785,
        -17.059667587280273
      ],
      "type": "VEC3"
    },
    {
      "bufferView": 2,
      "byteOffset": 530256,
      "componentType": 5126,
      "count": 17716,
      "max": [
        1.0,
        1.0,
        1.0
      ],
      "min": [
        -1.0,
        -1.0,
        -1.0
      ],
      "type": "VEC3"
    },
    {
      "bufferView": 1,
      "byteOffset": 105888,
      "componentType": 5126,
      "count": 17716,
      "max": [
        1.0,
        1.0
      ],
      "min": [
        0.0,
        0.0
      ],
      "type": "VEC2"
    },
    {
      "bufferView": 0,
      "byteOffset": 83880,
      "componentType": 5125,
      "count": 27612,
      "type": "SCALAR"
    },
    {
      "bufferView": 2,
      "byteOffset": 742848,
      "componentType": 5126,
      "count": 4,
      "max": [
        1.0,
        1.0,
        0.0
      ],
      "min": [
        -1.0,
        -1.0,
        0.0
      ],
      "type": "VEC3"
    },
    {
      "bufferView": 2,
      "byteOffset": 742896,
      "componentType": 5126,
      "count": 4,
      "max": [
        0.0,
        0.0,
        1.0
      ],
      "min": [
        0.0,
        0.0,
        1.0
      ],
      "type": "VEC3"
    },
    {
      "bufferView": 1,
      "byteOffset": 247616,
      "componentType": 5126,
      "count": 4,
      "max": [
        1.0,
        1.0
      ],
      "min": [
        0.0,
        0.0
      ],
      "type": "VEC2"
    },
    {
      "bufferView": 0,
      "byteOffset": 194328,
      "componentType": 5125,
      "count": 6,
      "type": "SCALAR"
    },
    {
      "bufferView": 2,
      "byteOffset": 742944,
      "componentType": 5126,
      "count": 3724,
      "max": [
        1.0,
        1.0,
        0.07181423902511597
      ],
      "min": [
        -4.618485450744629,
        -25.80283546447754,
        -1.27842116355896
      ],
      "type": "VEC3"
    },
    {
      "bufferView": 2,
      "byteOffset": 787632,
      "componentType": 5126,
      "count": 3724,
      "max": [
        0.9951848387718201,
        0.9951848387718201,
        1.0
      ],
      "min": [
        -0.9951849579811096,
        -0.9951848387718201,
        -1.0
      ],
      "type": "VEC3"
    },
    {
      "bufferView": 1,
      "byteOffset": 247648,
      "componentType": 5126,
      "count": 3724,
      "max": [
        1.0,
        1.0
      ],
      "min": [
        0.0,
        0.0
      ],
      "type": "VEC2"
    },
    {
      "bufferView": 0,
      "byteOffset": 194352,
      "componentType": 5125,
      "count": 5760,
      "type": "SCALAR"
    },
    {
      "bufferView": 2,
      "byteOffset": 832320,
      "componentType": 5126,
      "count": 324,
      "max": [
        1.0,
        1.857433557510376,
        0.2561381459236145
      ],
      "min": [
        -1.0,
        -1.8569365739822388,
        0.16223971545696259
      ],
      "type": "VEC3"
    },
    {
      "bufferView": 2,
      "byteOffset": 836208,
      "componentType": 5126,
      "count": 324,
      "max": [
        1.0,
        1.0,
        1.0
      ],
      "min": [
        -1.0,
        -1.0,
        -1.0
      ],
      "type": "VEC3"
    },
    {
      "bufferView": 1,
      "byteOffset": 277440,
      "componentType": 5126,
      "count": 324,
      "max": [
        1.0,
        1.0
      ],
      "min": [
        0.0,
        0.0
      ],
      "type": "VEC2"
    },
    {
      "bufferView": 0,
      "byteOffset": 217392,
      "componentType": 5125,
      "count": 636,
      "type": "SCALAR"
    },
    {
      "bufferView": 2,
      "byteOffset": 840096,
      "componentType": 5126,
      "count": 4,
      "max": [
        0.7142857313156128,
        0.5,
        0.0
      ],
      "min": [
        -0.7142857313156128,
        -0.5,
        0.0
      ],
      "type": "VEC3"
    },
    {
      "bufferView": 2,
      "byteOffset": 840144,
      "componentType": 5126,
      "count": 4,
      "max": [
        0.0,
        0.0,
        1.0
      ],
      "min": [
        0.0,
        0.0,
        1.0
      ],
      "type": "VEC3"
    },
    {
      "bufferView": 1,
      "byteOffset": 280032,
      "componentType": 5126,
      "count": 4,
      "max": [
        1.0,
        1.0
      ],
      "min": [
        0.0,
        0.0
      ],
      "type": "VEC2"
    },
    {
      "bufferView": 0,
      "byteOffset": 219936,
      "componentType": 5125,
      "count": 6,
      "type": "SCALAR"
    }
  ],
  "asset": {
    "extras": {
      "author": "eddakat (https://sketchfab.com/eddakat)",
      "license": "CC-BY-4.0 (http://creativecommons.org/licenses/by/4.0/)",
      "source": "https://sketchfab.com/3d-models/switch-lite-acnh-e98f78fc22f4456db93ec25b61752cde",
      "title": "Switch Lite ACNH"
    },
    "generator": "Sketchfab-12.68.0",
    "version": "2.0"
  },
  "bufferViews": [
    {
      "buffer": 0,
      "byteLength": 219960,
      "name": "floatBufferViews",
      "target": 34963
    },
    {
      "buffer": 0,
      "byteLength": 280064,
      "byteOffset": 219960,
      "byteStride": 8,
      "name": "floatBufferViews",
      "target": 34962
    },
    {
      "buffer": 0,
      "byteLength": 840192,
      "byteOffset": 500024,
      "byteStride": 12,
      "name": "floatBufferViews",
      "target": 34962
    }
  ],
  "buffers": [
    {
      "byteLength": 1340216,
      "uri": "scene.bin"
    }
  ],
  "images": [
    {
      "uri": "textures/blue_metallicRoughness.png"
    },
    {
      "uri": "textures/acnh_baseColor.png"
    },
    {
      "uri": "textures/white_baseColor.png"
    },
    {
      "uri": "textures/glass_metallicRoughness.png"
    },
    {
      "uri": "textures/nintendo-switch-logo-white-png-15_baseColor.png"
    }
  ],
  "materials": [
    {
      "doubleSided": true,
      "name": "blue",
      "pbrMetallicRoughness": {
        "baseColorFactor": [
          0.0060096082009572175,
          0.33108273651581677,
          0.29785822307412463,
          1.0
        ],
        "metallicFactor": 0.0,
        "metallicRoughnessTexture": {
          "index": 0
        }
      }
    },
    {
      "doubleSided": true,
      "name": "black",
      "pbrMetallicRoughness": {
        "baseColorFactor": [
          0.0014062695862439678,
          0.0177319702793015,
          0.014389936641770084,
          1.0
        ],
        "metallicFactor": 0.0,
        "roughnessFactor": 0.8040408205773457
      }
    },
    {
      "doubleSided": true,
      "emissiveFactor": [
        0.0032648397628895227,
        0.1379951349744574,
        0.13115182184598798
      ],
      "name": "acnh",
      "pbrMetallicRoughness": {
        "baseColorTexture": {
          "index": 1
        },
        "metallicFactor": 0.0,
        "roughnessFactor": 0.0
      }
    },
    {
      "doubleSided": true,
      "name": "white",
      "pbrMetallicRoughness": {
        "baseColorTexture": {
          "index": 2
        },
        "metallicFactor": 0.0
      }
    },
    {
      "doubleSided": true,
      "name": "screen",
      "pbrMetallicRoughness": {
        "baseColorFactor": [
          0.0194255,
          0.0194255,
          0.0194255,
          1.0
        ],
        "metallicFactor": 0.0,
        "roughnessFactor": 0.9956563261503077
      }
    },
    {
      "doubleSided": true,
      "name": "material_0",
      "pbrMetallicRoughness": {
        "baseColorFactor": [
          0.0477051,
          0.0477051,
          0.0477051,
          1.0
        ],
        "metallicFactor": 0.0,
        "roughnessFactor": 0.9966267400292818
      }
    },
    {
      "alphaMode": "BLEND",
      "doubleSided": true,
      "name": "glass",
      "pbrMetallicRoughness": {
        "baseColorFactor": [
          1.0,
          1.0,
          1.0,
          0.2151295731707317
        ],
        "metallicRoughnessTexture": {
          "index": 3
        }
      }
    },
    {
      "alphaMode": "BLEND",
      "doubleSided": true,
      "name": "nintendo-switch-logo-white-png-15",
      "pbrMetallicRoughness": {
        "baseColorFactor": [
          1.0,
          1.0,
          1.0,
          0.0
        ],
        "baseColorTexture": {
          "index": 4
        },
        "metallicFactor": 0.0,
        "roughnessFactor": 0.4738948170731707
      }
    }
  ],
  "meshes": [
    {
      "name": "console_blue_0",
      "primitives": [
        {
          "attributes": {
            "NORMAL": 1,
            "POSITION": 0,
            "TEXCOORD_0": 2
          },
          "indices": 3,
          "material": 0,
          "mode": 4
        }
      ]
    },
    {
      "name": "console_black_0",
      "primitives": [
        {
          "attributes": {
            "NORMAL": 5,
            "POSITION": 4,
            "TEXCOORD_0": 6
          },
          "indices": 7,
          "material": 1,
          "mode": 4
        }
      ]
    },
    {
      "name": "acnh_acnh_0",
      "primitives": [
        {
          "attributes": {
            "NORMAL": 9,
            "POSITION": 8,
            "TEXCOORD_0": 10
          },
          "indices": 11,
          "material": 2,
          "mode": 4
        }
      ]
    },
    {
      "name": "buttons_white_0",
      "primitives": [
        {
          "attributes": {
            "NORMAL": 13,
            "POSITION": 12,
            "TEXCOORD_0": 14
          },
          "indices": 15,
          "material": 3,
          "mode": 4
        }
      ]
    },
    {
      "name": "screen_screen_0",
      "primitives": [
        {
          "attributes": {
            "NORMAL": 17,
            "POSITION": 16,
            "TEXCOORD_0": 18
          },
          "indices": 19,
          "material": 4,
          "mode": 4
        }
      ]
    },
    {
      "name": "JCunder_black.001_0",
      "primitives": [
        {
          "attributes": {
            "NORMAL": 21,
            "POSITION": 20,
            "TEXCOORD_0": 22
          },
          "indices": 23,
          "material": 5,
          "mode": 4
        }
      ]
    },
    {
      "name": "glass_glass_0",
      "primitives": [
        {
          "attributes": {
            "NORMAL": 25,
            "POSITION": 24,
            "TEXCOORD_0": 26
          },
          "indices": 27,
          "material": 6,
          "mode": 4
        }
      ]
    },
    {
      "name": "nintendo-switch-logo-white-png-15_nintendo-switch-logo-white-png-15_0",
      "primitives": [
        {
          "attributes": {
            "NORMAL": 29,
            "POSITION": 28,
            "TEXCOORD_0": 30
          },
          "indices": 31,
          "material": 7,
          "mode": 4
        }
      ]
    }
  ],
  "nodes": [
    {
      "children": [
        1
      ],
      "matrix": [
        1.0,
        0.0,
        0.0,
        0.0,
        0.0,
        2.220446049250313e-16,
        -1.0,
        0.0,
        0.0,
        1.0,
        2.220446049250313e-16,
        0.0,
        0.0,
        0.0,
        0.0,
        1.0
      ],
      "name": "Sketchfab_model"
    },
    {
      "children": [
        2
      ],
      "matrix": [
        1.0,
        0.0,
        0.0,
        0.0,
        0.0,
        0.0,
        1.0,
        0.0,
        0.0,
        -1.0,
        0.0,
        0.0,
        0.0,
        0.0,
        0.0,
        1.0
      ],
      "name": "switch7.fbx"
    },
    {
      "children": [
        3,
        6,
        9,
        12,
        14,
        16,
        18,
        20,
        22,
        24
      ],
      "name": "RootNode"
    },
    {
      "children": [
        4
      ],
      "matrix": [
        -29.08647719990347,
        -5.518906457566863,
        -95.51711910171437,
        0.0,
        56.63930913109449,
        79.46723428563203,
        -21.83912397841966,
        0.0,
        77.11008775993375,
        -60.45246356562044,
        -19.98834696773717,
        0.0,
        407.6245422363281,
        1546.6864013671875,
        -100.54539489746094,
        1.0
      ],
      "name": "Light"
    },
    {
      "children": [
        5
      ],
      "matrix": [
        1.0,
        0.0,
        0.0,
        0.0,
        0.0,
        2.220446049250313e-16,
        1.0,
        0.0,
        0.0,
        -1.0,
        2.220446049250313e-16,
        0.0,
        0.0,
        0.0,
        0.0,
        1.0
      ],
      "name": "Object_4"
    },
    {
      "name": "Object_5"
    },
    {
      "children": [
        7
      ],
      "matrix": [
        -29.08647719990347,
        -5.518906457566863,
        -95.51711910171437,
        0.0,
        56.63930913109449,
        79.46723428563203,
        -21.83912397841966,
        0.0,
        77.11008775993375,
        -60.45246356562044,
        -19.98834696773717,
        0.0,
        -51.4384765625,
        -1331.3016357421875,
        29.39891815185547,
        1.0
      ],
      "name": "Light.001"
    },
    {
      "children": [
        8
      ],
      "matrix": [
        1.0,
        0.0,
        0.0,
        0.0,
        0.0,
        2.220446049250313e-16,
        1.0,
        0.0,
        0.0,
        -1.0,
        2.220446049250313e-16,
        0.0,
        0.0,
        0.0,
        0.0,
        1.0
      ],
      "name": "Object_7"
    },
    {
      "name": "Object_8"
    },
    {
      "children": [
        10,
        11
      ],
      "matrix": [
        0.7387229343062129,
        3.037313299334199,
        99.95113314189096,
        0.0,
        -99.99726632504856,
        0.072831720088559,
        0.7368506882823144,
        0.0,
        -0.05041566171739009,
        -99.953836461954,
        3.0377680619177783,
        0.0,
        165.2913818359375,
        -4.410224914550781,
        -115.73941802978516,
        1.0
      ],
      "name": "console"
    },
    {
      "mesh": 0,
      "name": "console_blue_0"
    },
    {
      "mesh": 1,
      "name": "console_black_0"
    },
    {
      "children": [
        13
      ],
      "matrix": [
        646.6157522602571,
        -0.4740301371935353,
        -4.765155590977267,
        0.0,
        -4.777355468041882,
        -19.639705616362146,
        -646.3175081347479,
        0.0,
        0.3290700361894306,
        646.3349293364214,
        -19.642667367800016,
        0.0,
        166.7283477783203,
        87.49673461914063,
        -118.54290008544922,
        1.0
      ],
      "name": "acnh"
    },
    {
      "mesh": 2,
      "name": "acnh_acnh_0"
    },
    {
      "children": [
        15
      ],
      "matrix": [
        0.2078382982270617,
        0.8545202811218995,
        28.120405117237393,
        0.0,
        28.13338010207572,
        -0.020644801084830123,
        -0.20730684420297835,
        0.0,
        0.005849682734831606,
        11.472864972727821,
        -0.34867959935126913,
        0.0,
        -597.2783813476563,
        93.0844955444336,
        225.07286071777344,
        1.0
      ],
      "name": "buttons"
    },
    {
      "mesh": 3,
      "name": "buttons_white_0"
    },
    {
      "children": [
        17
      ],
      "matrix": [
        2.489513511414752,
        10.23557362218606,
        336.8291562289055,
        0.0,
        592.2491430220583,
        -0.43378350576351526,
        -4.364147798621456,
        0.0,
        0.1712769116786649,
        336.83829620940105,
        -10.237117280505046,
        0.0,
        165.3380584716797,
        87.32884979248047,
        -118.52751159667969,
        1.0
      ],
      "name": "screen"
    },
    {
      "mesh": 4,
      "name": "screen_screen_0"
    },
    {
      "children": [
        19
      ],
      "matrix": [
        0.5117481772706637,
        2.1040400545955285,
        69.23911276697663,
        0.0,
        69.2710728852538,
        -0.050736500336390045,
        -0.5104426132180444,
        0.0,
        0.035207942706134886,
        69.24099295077345,
        -2.104357412540278,
        0.0,
        1031.17919921875,
        118.13129425048828,
        -6.903970241546631,
        1.0
      ],
      "name": "JCunder"
    },
    {
      "mesh": 5,
      "name": "JCunder_black.001_0"
    },
    {
      "children": [
        21
      ],
      "matrix": [
        2.754053361845376,
        11.323275619414272,
        372.6242485846694,
        0.0,
        372.7962364954993,
        -0.27333694741292563,
        -2.747018377626153,
        0.0,
        0.18976799565296004,
        372.6343562574856,
        -11.324985339471414,
        0.0,
        165.2903289794922,
        -6.479093551635742,
        -115.67654418945313,
        1.0
      ],
      "name": "glass"
    },
    {
      "mesh": 6,
      "name": "glass_glass_0"
    },
    {
      "children": [
        23
      ],
      "matrix": [
        -509.83760991806855,
        0.3733717135286312,
        3.757527000163171,
        0.0,
        -3.76713548908852,
        -15.487175835450953,
        -509.6024274827224,
        0.0,
        -0.2590511515758365,
        -509.6161839163672,
        15.48950888770744,
        0.0,
        196.1932830810547,
        -57.59907531738281,
        -102.48332214355469,
        1.0
      ],
      "name": "nintendo-switch-logo-white-png-15"
    },
    {
      "mesh": 7,
      "name": "nintendo-switch-logo-white-png-15_nintendo-switch-logo-white-png-15_0"
    },
    {
      "children": [
        25
      ],
      "matrix": [
        7.549789948768648e-06,
        -99.99999999999973,
        0.0,
        0.0,
        7.549789954319763e-06,
        5.551115123125783e-13,
        -99.99999999999973,
        0.0,
        99.99999999999945,
        7.549789954319763e-06,
        7.549789948768648e-06,
        0.0,
        141.54727172851563,
        3119.574462890625,
        -105.39573669433594,
        1.0
      ],
      "name": "Camera"
    },
    {
      "name": "Object_25"
    }
  ],
  "samplers": [
    {
      "magFilter": 9729,
      "minFilter": 9987,
      "wrapS": 10497,
      "wrapT": 10497
    }
  ],
  "scene": 0,
  "scenes": [
    {
      "name": "Sketchfab_Scene",
      "nodes": [
        0
      ]
    }
  ],
  "textures": [
    {
      "sampler": 0,
      "source": 0
    },
    {
      "sampler": 0,
      "source": 1
    },
    {
      "sampler": 0,
      "source": 2
    },
    {
      "sampler": 0,
      "source": 3
    },
    {
      "sampler": 0,
      "source": 4
    }
  ]
}
